<svg xmlns="http://www.w3.org/2000/svg" width="96" height="96" viewBox="0 0 96 96" role="img" aria-labelledby="unit-battle-dwarf-title unit-battle-dwarf-desc">
  <title id="unit-battle-dwarf-title">Nain de bataille</title>
  <desc id="unit-battle-dwarf-desc">Sprite d'unité Nain de bataille. Le dessin reprend la silhouette de battle dwarf.</desc>
  <defs>
    <linearGradient id="unit-battle-dwarf-body" x1="0" y1="0" x2="1" y2="1">
      <stop offset="0%" stop-color="#bbf7d0"/>
      <stop offset="48%" stop-color="#2f6f3b"/>
      <stop offset="100%" stop-color="#12391f"/>
    </linearGradient>
    <linearGradient id="unit-battle-dwarf-alt" x1="0" y1="0" x2="1" y2="1">
      <stop offset="0%" stop-color="#d6e68b"/>
      <stop offset="100%" stop-color="#7a4f25"/>
    </linearGradient>
    <linearGradient id="unit-battle-dwarf-steel" x1="0" y1="0" x2="0" y2="1">
      <stop offset="0%" stop-color="#f8fafc"/>
      <stop offset="55%" stop-color="#aeb8c4"/>
      <stop offset="100%" stop-color="#475569"/>
    </linearGradient>
    <radialGradient id="unit-battle-dwarf-glow" cx="50%" cy="48%" r="50%">
      <stop offset="0%" stop-color="#d6e68b" stop-opacity=".65"/>
      <stop offset="100%" stop-color="#d6e68b" stop-opacity="0"/>
    </radialGradient>
  </defs>
  <ellipse cx="49" cy="89" rx="33" ry="5" fill="#000" opacity=".28"/>
  <g transform="translate(0 8) scale(1.05 0.9)">
    <g opacity=".55">
    <ellipse cx="48" cy="49" rx="35" ry="40" fill="#86efac" opacity=".10"/>
    <path d="M24 70 Q15 52 27 34 M72 70 Q82 52 69 34" fill="none" stroke="#86efac" stroke-width="2" stroke-dasharray="5 5" opacity=".7"/>
    
  </g>
    
    
    <path d="M35 71 L31 88 H42 L45 72 Z M53 72 L56 88 H67 L61 71 Z" fill="#12391f" stroke="#12391f" stroke-width="1"/><path d="M29 88 H43 M54 88 H69" stroke="#0f172a" stroke-width="3" stroke-linecap="round"/>
    
    <path d="M30 37 Q33 28 48 27 Q63 28 66 37 L64 71 Q56 78 48 78 Q40 78 32 71 Z" fill="url(#unit-battle-dwarf-body)" stroke="#12391f" stroke-width="2"/>
    <path d="M35 40 H61 L58 62 H38 Z" fill="#d6e68b" opacity=".20"/>
    <path d="M39 43 H57 M40 49 H56 M41 55 H55" stroke="#bbf7d0" stroke-width="1.1" opacity=".42" stroke-linecap="round"/>
    <path d="M48 42 L59 53 L48 64 L37 53 Z" fill="#d6e68b" stroke="#7a4f25" stroke-width="1"/>
    
    <path d="M31 41 Q18 50 21 68 L30 65 Q28 53 35 43 Z" fill="url(#unit-battle-dwarf-body)" stroke="#12391f" stroke-width="1.5"/><path d="M65 41 Q78 50 75 68 L66 65 Q68 53 61 43 Z" fill="url(#unit-battle-dwarf-body)" stroke="#12391f" stroke-width="1.5"/>
    <path d="M27 33 L40 43 L37 72 L27 83 L17 72 L14 43 Z" fill="url(#unit-battle-dwarf-body)" stroke="#d6e68b" stroke-width="2"/><path d="M27 39 V74 M19 55 H35" stroke="#bbf7d0" stroke-width="1.8"/>
    <path d="M64 81 L60 26" stroke="#7a4e20" stroke-width="4" stroke-linecap="round"/><path d="M57 22 C75 17 76 40 59 36 Z" fill="url(#unit-battle-dwarf-steel)" stroke="#475569" stroke-width="1.2"/><path d="M57 23 C45 23 44 40 59 36" fill="url(#unit-battle-dwarf-steel)" stroke="#475569" stroke-width="1.2"/>
    <path d="M37 17 Q48 9 59 17 L57 29 Q48 35 39 29 Z" fill="url(#unit-battle-dwarf-steel)" stroke="#12391f" stroke-width="1.6"/><path d="M40 22 H46 M50 22 H56" stroke="#0f172a" stroke-width="1.9" stroke-linecap="round"/><path d="M42 28 H54" stroke="#12391f" stroke-width="1.1" opacity=".65"/>
    
    <path d="M36 17 H60 M39 23 H57" stroke="#111827" stroke-width="2.2" stroke-linecap="round"/>
    <path d="M37 38 H59 M38 64 H58" stroke="#bbf7d0" stroke-width="1.4" opacity=".55" stroke-linecap="round"/>
  </g>
</svg>
