<svg xmlns="http://www.w3.org/2000/svg" width="96" height="96" viewBox="0 0 96 96" role="img" aria-labelledby="unit-goblin-title unit-goblin-desc">
  <title id="unit-goblin-title">Gobelin</title>
  <desc id="unit-goblin-desc">Sprite d'unité Gobelin. Le dessin reprend la silhouette de goblin.</desc>
  <defs>
    <linearGradient id="unit-goblin-body" x1="0" y1="0" x2="1" y2="1">
      <stop offset="0%" stop-color="#fed7aa"/>
      <stop offset="48%" stop-color="#c96a2c"/>
      <stop offset="100%" stop-color="#30170c"/>
    </linearGradient>
    <linearGradient id="unit-goblin-alt" x1="0" y1="0" x2="1" y2="1">
      <stop offset="0%" stop-color="#f0c06d"/>
      <stop offset="100%" stop-color="#774127"/>
    </linearGradient>
    <linearGradient id="unit-goblin-steel" x1="0" y1="0" x2="0" y2="1">
      <stop offset="0%" stop-color="#f8fafc"/>
      <stop offset="55%" stop-color="#aeb8c4"/>
      <stop offset="100%" stop-color="#475569"/>
    </linearGradient>
    <radialGradient id="unit-goblin-glow" cx="50%" cy="48%" r="50%">
      <stop offset="0%" stop-color="#f0c06d" stop-opacity=".65"/>
      <stop offset="100%" stop-color="#f0c06d" stop-opacity="0"/>
    </radialGradient>
  </defs>
  <ellipse cx="49" cy="89" rx="33" ry="5" fill="#000" opacity=".28"/>
  <g transform="translate(8 13) scale(0.82 0.84)">
    
    
    
    <path d="M35 71 L31 88 H42 L45 72 Z M53 72 L56 88 H67 L61 71 Z" fill="#30170c" stroke="#30170c" stroke-width="1"/><path d="M29 88 H43 M54 88 H69" stroke="#0f172a" stroke-width="3" stroke-linecap="round"/>
    
    <path d="M30 37 Q33 28 48 27 Q63 28 66 37 L64 71 Q56 78 48 78 Q40 78 32 71 Z" fill="url(#unit-goblin-body)" stroke="#30170c" stroke-width="2"/>
    <path d="M35 40 H61 L58 62 H38 Z" fill="#f0c06d" opacity=".20"/>
    <path d="M39 43 H57 M40 49 H56 M41 55 H55" stroke="#fed7aa" stroke-width="1.1" opacity=".42" stroke-linecap="round"/>
    <path d="M42.26 46.44 L46.36 61.2 L48.82 48.08 M52.1 46.44 L56.2 61.2 L58.66 48.08" fill="none" stroke="#f0c06d" stroke-width="1.64" stroke-linecap="round"/>
    
    <path d="M31 41 Q18 50 21 68 L30 65 Q28 53 35 43 Z" fill="url(#unit-goblin-body)" stroke="#30170c" stroke-width="1.5"/><path d="M65 41 Q78 50 75 68 L66 65 Q68 53 61 43 Z" fill="url(#unit-goblin-body)" stroke="#30170c" stroke-width="1.5"/>
    
    <path d="M51 68 L66 37" stroke="url(#unit-goblin-steel)" stroke-width="3" stroke-linecap="round"/><path d="M61 30 L59 40 L70 36 Z" fill="url(#unit-goblin-steel)" stroke="#475569" stroke-width="1"/>
    <path d="M37 17 Q48 9 59 17 L57 29 Q48 35 39 29 Z" fill="url(#unit-goblin-steel)" stroke="#30170c" stroke-width="1.6"/><path d="M40 22 H46 M50 22 H56" stroke="#0f172a" stroke-width="1.9" stroke-linecap="round"/><path d="M42 28 H54" stroke="#30170c" stroke-width="1.1" opacity=".65"/>
    
    <path d="M35 14 Q48 3 61 14 L57 18 Q48 14 39 18 Z" fill="#774127" stroke="#30170c" stroke-width="1.5"/>
    <path d="M37 38 H59 M38 64 H58" stroke="#fed7aa" stroke-width="1.4" opacity=".55" stroke-linecap="round"/>
  </g>
</svg>
