<svg xmlns="http://www.w3.org/2000/svg" width="96" height="96" viewBox="0 0 96 96" role="img" aria-labelledby="unit-kobold-title unit-kobold-desc">
  <title id="unit-kobold-title">Kobold</title>
  <desc id="unit-kobold-desc">Sprite d'unité Kobold. Le dessin reprend la silhouette de kobold.</desc>
  <defs>
    <linearGradient id="unit-kobold-body" x1="0" y1="0" x2="1" y2="1">
      <stop offset="0%" stop-color="#e0f2fe"/>
      <stop offset="48%" stop-color="#3b82f6"/>
      <stop offset="100%" stop-color="#1e3a8a"/>
    </linearGradient>
    <linearGradient id="unit-kobold-alt" x1="0" y1="0" x2="1" y2="1">
      <stop offset="0%" stop-color="#d9f99d"/>
      <stop offset="100%" stop-color="#475569"/>
    </linearGradient>
    <linearGradient id="unit-kobold-steel" x1="0" y1="0" x2="0" y2="1">
      <stop offset="0%" stop-color="#f8fafc"/>
      <stop offset="55%" stop-color="#aeb8c4"/>
      <stop offset="100%" stop-color="#475569"/>
    </linearGradient>
    <radialGradient id="unit-kobold-glow" cx="50%" cy="48%" r="50%">
      <stop offset="0%" stop-color="#d9f99d" stop-opacity=".65"/>
      <stop offset="100%" stop-color="#d9f99d" stop-opacity="0"/>
    </radialGradient>
  </defs>
  <ellipse cx="49" cy="89" rx="33" ry="5" fill="#000" opacity=".28"/>
  <g transform="translate(8 13) scale(0.82 0.84)">
    <g opacity=".55">
    <ellipse cx="48" cy="49" rx="35" ry="40" fill="#cbd5e1" opacity=".10"/>
    <path d="M24 70 Q15 52 27 34 M72 70 Q82 52 69 34" fill="none" stroke="#cbd5e1" stroke-width="2" stroke-dasharray="5 5" opacity=".7"/>
    
  </g>
    
    
    <path d="M35 71 L31 88 H42 L45 72 Z M53 72 L56 88 H67 L61 71 Z" fill="#1e3a8a" stroke="#1e3a8a" stroke-width="1"/><path d="M29 88 H43 M54 88 H69" stroke="#0f172a" stroke-width="3" stroke-linecap="round"/>
    
    <path d="M30 37 Q33 28 48 27 Q63 28 66 37 L64 71 Q56 78 48 78 Q40 78 32 71 Z" fill="url(#unit-kobold-body)" stroke="#1e3a8a" stroke-width="2"/>
    <path d="M35 40 H61 L58 62 H38 Z" fill="#d9f99d" opacity=".20"/>
    <path d="M39 43 H57 M40 49 H56 M41 55 H55" stroke="#e0f2fe" stroke-width="1.1" opacity=".42" stroke-linecap="round"/>
    <path d="M48 43.980000000000004 L57.019999999999996 53 L48 62.019999999999996 L38.980000000000004 53 Z" fill="#d9f99d" stroke="#475569" stroke-width="0.82"/>
    
    <path d="M31 41 Q18 50 21 68 L30 65 Q28 53 35 43 Z" fill="url(#unit-kobold-body)" stroke="#1e3a8a" stroke-width="1.5"/><path d="M65 41 Q78 50 75 68 L66 65 Q68 53 61 43 Z" fill="url(#unit-kobold-body)" stroke="#1e3a8a" stroke-width="1.5"/>
    
    <path d="M51 68 L66 37" stroke="url(#unit-kobold-steel)" stroke-width="3" stroke-linecap="round"/><path d="M61 30 L59 40 L70 36 Z" fill="url(#unit-kobold-steel)" stroke="#475569" stroke-width="1"/>
    <path d="M37 17 Q48 9 59 17 L57 29 Q48 35 39 29 Z" fill="url(#unit-kobold-steel)" stroke="#1e3a8a" stroke-width="1.6"/><path d="M40 22 H46 M50 22 H56" stroke="#0f172a" stroke-width="1.9" stroke-linecap="round"/><path d="M42 28 H54" stroke="#1e3a8a" stroke-width="1.1" opacity=".65"/>
    
    <path d="M35 14 Q48 3 61 14 L57 18 Q48 14 39 18 Z" fill="#475569" stroke="#1e3a8a" stroke-width="1.5"/>
    <path d="M37 38 H59 M38 64 H58" stroke="#e0f2fe" stroke-width="1.4" opacity=".55" stroke-linecap="round"/>
  </g>
</svg>
