<svg xmlns="http://www.w3.org/2000/svg" width="96" height="96" viewBox="0 0 96 96" role="img" aria-labelledby="unit-minotaur-king-title unit-minotaur-king-desc">
  <title id="unit-minotaur-king-title">Roi minotaure</title>
  <desc id="unit-minotaur-king-desc">Sprite d'unité Roi minotaure. Le dessin reprend la silhouette de minotaur king.</desc>
  <defs>
    <linearGradient id="unit-minotaur-king-body" x1="0" y1="0" x2="1" y2="1">
      <stop offset="0%" stop-color="#d8b4fe"/>
      <stop offset="48%" stop-color="#6d28d9"/>
      <stop offset="100%" stop-color="#17101f"/>
    </linearGradient>
    <linearGradient id="unit-minotaur-king-alt" x1="0" y1="0" x2="1" y2="1">
      <stop offset="0%" stop-color="#84e6ff"/>
      <stop offset="100%" stop-color="#2d7a8b"/>
    </linearGradient>
    <linearGradient id="unit-minotaur-king-steel" x1="0" y1="0" x2="0" y2="1">
      <stop offset="0%" stop-color="#f8fafc"/>
      <stop offset="55%" stop-color="#aeb8c4"/>
      <stop offset="100%" stop-color="#475569"/>
    </linearGradient>
    <radialGradient id="unit-minotaur-king-glow" cx="50%" cy="48%" r="50%">
      <stop offset="0%" stop-color="#84e6ff" stop-opacity=".65"/>
      <stop offset="100%" stop-color="#84e6ff" stop-opacity="0"/>
    </radialGradient>
  </defs>
  <ellipse cx="49" cy="89" rx="33" ry="5" fill="#000" opacity=".28"/>
  <g transform="translate(-4 0) scale(1.08 1)">
    <g opacity=".55">
    <ellipse cx="48" cy="49" rx="35" ry="40" fill="#a78bfa" opacity=".10"/>
    <path d="M24 70 Q15 52 27 34 M72 70 Q82 52 69 34" fill="none" stroke="#a78bfa" stroke-width="2" stroke-dasharray="5 5" opacity=".7"/>
    
  </g>
    
    
    <path d="M35 71 L31 88 H42 L45 72 Z M53 72 L56 88 H67 L61 71 Z" fill="#17101f" stroke="#17101f" stroke-width="1"/><path d="M29 88 H43 M54 88 H69" stroke="#0f172a" stroke-width="3" stroke-linecap="round"/>
    
    <path d="M30 37 Q33 28 48 27 Q63 28 66 37 L64 71 Q56 78 48 78 Q40 78 32 71 Z" fill="url(#unit-minotaur-king-body)" stroke="#17101f" stroke-width="2"/>
    <path d="M35 40 H61 L58 62 H38 Z" fill="#84e6ff" opacity=".20"/>
    <path d="M39 43 H57 M40 49 H56 M41 55 H55" stroke="#d8b4fe" stroke-width="1.1" opacity=".42" stroke-linecap="round"/>
    <path d="M40.65 44.6 L45.9 63.5 L49.05 46.7 M53.25 44.6 L58.5 63.5 L61.65 46.7" fill="none" stroke="#84e6ff" stroke-width="2.1" stroke-linecap="round"/>
    
    <path d="M31 41 Q18 50 21 68 L30 65 Q28 53 35 43 Z" fill="url(#unit-minotaur-king-body)" stroke="#17101f" stroke-width="1.5"/><path d="M65 41 Q78 50 75 68 L66 65 Q68 53 61 43 Z" fill="url(#unit-minotaur-king-body)" stroke="#17101f" stroke-width="1.5"/>
    
    <path d="M64 81 L60 26" stroke="#7a4e20" stroke-width="4" stroke-linecap="round"/><path d="M57 22 C75 17 76 40 59 36 Z" fill="url(#unit-minotaur-king-steel)" stroke="#475569" stroke-width="1.2"/><path d="M57 23 C45 23 44 40 59 36" fill="url(#unit-minotaur-king-steel)" stroke="#475569" stroke-width="1.2"/>
    <path d="M37 17 Q48 9 59 17 L57 29 Q48 35 39 29 Z" fill="url(#unit-minotaur-king-steel)" stroke="#17101f" stroke-width="1.6"/><path d="M40 22 H46 M50 22 H56" stroke="#0f172a" stroke-width="1.9" stroke-linecap="round"/><path d="M42 28 H54" stroke="#17101f" stroke-width="1.1" opacity=".65"/>
    
    <path d="M36 10 L42 -1 L48 10 L54 -1 L60 10 L58 17 H38 Z" fill="#84e6ff" stroke="#2d7a8b" stroke-width="1.2"/>
    <path d="M37 38 H59 M38 64 H58" stroke="#d8b4fe" stroke-width="1.4" opacity=".55" stroke-linecap="round"/>
  </g>
</svg>
