<svg xmlns="http://www.w3.org/2000/svg" width="96" height="96" viewBox="0 0 96 96" role="img" aria-labelledby="unit-water-elemental-title unit-water-elemental-desc">
  <title id="unit-water-elemental-title">Élémentaire d'eau</title>
  <desc id="unit-water-elemental-desc">Sprite d'unité Élémentaire d'eau. Le dessin reprend la silhouette de water elemental.</desc>
  <defs>
    <linearGradient id="unit-water-elemental-body" x1="0" y1="0" x2="1" y2="1">
      <stop offset="0%" stop-color="#cffafe"/>
      <stop offset="48%" stop-color="#0e7490"/>
      <stop offset="100%" stop-color="#164e63"/>
    </linearGradient>
    <linearGradient id="unit-water-elemental-alt" x1="0" y1="0" x2="1" y2="1">
      <stop offset="0%" stop-color="#fef08a"/>
      <stop offset="100%" stop-color="#7c3aed"/>
    </linearGradient>
    <linearGradient id="unit-water-elemental-steel" x1="0" y1="0" x2="0" y2="1">
      <stop offset="0%" stop-color="#f8fafc"/>
      <stop offset="55%" stop-color="#aeb8c4"/>
      <stop offset="100%" stop-color="#475569"/>
    </linearGradient>
    <radialGradient id="unit-water-elemental-glow" cx="50%" cy="48%" r="50%">
      <stop offset="0%" stop-color="#fef08a" stop-opacity=".65"/>
      <stop offset="100%" stop-color="#fef08a" stop-opacity="0"/>
    </radialGradient>
  </defs>
  <ellipse cx="49" cy="89" rx="33" ry="5" fill="#000" opacity=".28"/>
  <g transform="translate(0 0) scale(1 1)">
    <g opacity=".55">
    <ellipse cx="48" cy="49" rx="35" ry="40" fill="#a78bfa" opacity=".10"/>
    <path d="M24 70 Q15 52 27 34 M72 70 Q82 52 69 34" fill="none" stroke="#a78bfa" stroke-width="2" stroke-dasharray="5 5" opacity=".7"/>
    
  </g>
    
    
    
    
    <path d="M30 34 Q34 25 48 24 Q62 25 66 34 L75 84 Q48 90 21 84 Z" fill="url(#unit-water-elemental-body)" stroke="#164e63" stroke-width="2"/>
    <path d="M35 40 H61 L58 62 H38 Z" fill="#fef08a" opacity=".20"/>
    <path d="M39 43 H57 M40 49 H56 M41 55 H55" stroke="#cffafe" stroke-width="1.1" opacity=".42" stroke-linecap="round"/>
    <path d="M48 42 L58 53 L48 64 L38 53 Z" fill="#fef08a" stroke="#7c3aed" stroke-width="1"/><path d="M43 53 H53 M48 47 V59" stroke="#164e63" stroke-width="1.3"/>
    
    <path d="M31 41 Q18 50 21 68 L30 65 Q28 53 35 43 Z" fill="url(#unit-water-elemental-body)" stroke="#164e63" stroke-width="1.5"/><path d="M65 41 Q78 50 75 68 L66 65 Q68 53 61 43 Z" fill="url(#unit-water-elemental-body)" stroke="#164e63" stroke-width="1.5"/>
    
    <path d="M43 54 Q60 39 72 53" fill="none" stroke="#cffafe" stroke-width="3" stroke-linecap="round"/><circle cx="77" cy="47" r="10" fill="url(#unit-water-elemental-glow)" stroke="#fef08a" stroke-width="2"/><path d="M71 42 Q78 35 85 43" fill="none" stroke="#fff7ad" stroke-width="1.4" opacity=".75"/>
    <path d="M38 18 Q48 10 58 18 L56 30 Q48 35 40 30 Z" fill="#164e63" stroke="#7c3aed" stroke-width="1.4"/><path d="M43 23 H46 M50 23 H53" stroke="#fef08a" stroke-width="1.8" stroke-linecap="round"/>
    
    <ellipse cx="48" cy="3" rx="14" ry="4" fill="none" stroke="#fef08a" stroke-width="2.5"/>
    <path d="M37 38 H59 M38 64 H58" stroke="#cffafe" stroke-width="1.4" opacity=".55" stroke-linecap="round"/>
  </g>
</svg>
