<svg xmlns="http://www.w3.org/2000/svg" width="512" height="512" viewBox="0 0 512 512">
  <defs>
    <linearGradient id="nix_warrior-cloth" x1="0" x2="1" y1="0" y2="1">
      <stop offset="0" stop-color="#73abb2"/>
      <stop offset="0.48" stop-color="#0e6f7a"/>
      <stop offset="1" stop-color="#09454c"/>
    </linearGradient>
    <linearGradient id="nix_warrior-cloth2" x1="0" x2="1" y1="0" y2="1">
      <stop offset="0" stop-color="#65829a"/>
      <stop offset="1" stop-color="#0c2a41"/>
    </linearGradient>
    <linearGradient id="nix_warrior-metal" x1="0" x2="1" y1="0" y2="1">
      <stop offset="0" stop-color="#f6fbff"/>
      <stop offset="0.48" stop-color="#9fb3bd"/>
      <stop offset="1" stop-color="#4f5b60"/>
    </linearGradient>
    <linearGradient id="nix_warrior-gold" x1="0" x2="1" y1="0" y2="1">
      <stop offset="0" stop-color="#fff3a5"/>
      <stop offset="0.55" stop-color="#f0c15b"/>
      <stop offset="1" stop-color="#8d5720"/>
    </linearGradient>
    <linearGradient id="nix_warrior-skin" x1="0" x2="1" y1="0" y2="1">
      <stop offset="0" stop-color="#cda585"/>
      <stop offset="1" stop-color="#8b6240"/>
    </linearGradient>
    <filter id="nix_warrior-drop" x="-30%" y="-30%" width="160%" height="160%">
      <feDropShadow dx="0" dy="10" stdDeviation="6" flood-color="#05070a" flood-opacity="0.45"/>
    </filter>
  </defs>
  <g filter="url(#nix_warrior-drop)" stroke="#101921" stroke-width="9" stroke-linecap="round" stroke-linejoin="round">
    <g transform="translate(258 282)">
    <path d="M-108,88 C-50,144 70,146 138,82 C88,174 -54,190 -144,112Z" fill="url(#nix_warrior-cloth2)"/>
    <path d="M-58,-76 C-98,-28 -104,44 -70,98 C-8,124 68,104 92,48 C84,-12 48,-58 6,-88Z" fill="url(#nix_warrior-metal)"/>
    <path d="M-74,-42 L-154,24 M60,-36 L144,-80" fill="none" stroke="#b98255" stroke-width="16"/>
    <path d="M104,-112 L164,-164" fill="none" stroke="url(#nix_warrior-metal)" stroke-width="14"/>
    <path d="M96,-102 L132,-132" fill="none" stroke="url(#nix_warrior-gold)" stroke-width="8"/>
    <ellipse cx="-6" cy="-132" rx="43" ry="46" fill="url(#nix_warrior-skin)"/>
    <path d="M-48,-148 C-20,-186 34,-178 58,-140" fill="none" stroke-width="14"/>
    <path d="M-26,-126 L22,-126" fill="none" stroke-width="5"/>
    <path d="M-46,-82 C-12,-52 24,-52 64,-84" fill="none" stroke="#35d8ee" stroke-width="7"/>
  </g>
  </g>
</svg>