<svg xmlns="http://www.w3.org/2000/svg" width="80" height="80" viewBox="0 0 80 80" role="img" aria-labelledby="hero-cavalier-title hero-cavalier-desc">
  <title id="hero-cavalier-title">Héros cavalier</title>
  <desc id="hero-cavalier-desc">Sprite de héros sur la carte, avec monture et équipement de faction : Héros cavalier.</desc>
  <defs>
    <linearGradient id="hero-cavalier-body" x1="0" y1="0" x2="1" y2="1">
      <stop offset="0%" stop-color="#dbeafe"/>
      <stop offset="48%" stop-color="#315aaa"/>
      <stop offset="100%" stop-color="#172554"/>
    </linearGradient>
    <linearGradient id="hero-cavalier-alt" x1="0" y1="0" x2="1" y2="1">
      <stop offset="0%" stop-color="#f4c95d"/>
      <stop offset="100%" stop-color="#8b1e2d"/>
    </linearGradient>
    <linearGradient id="hero-cavalier-steel" x1="0" y1="0" x2="0" y2="1">
      <stop offset="0%" stop-color="#f8fafc"/>
      <stop offset="55%" stop-color="#aeb8c4"/>
      <stop offset="100%" stop-color="#475569"/>
    </linearGradient>
    <radialGradient id="hero-cavalier-glow" cx="50%" cy="48%" r="50%">
      <stop offset="0%" stop-color="#f4c95d" stop-opacity=".65"/>
      <stop offset="100%" stop-color="#f4c95d" stop-opacity="0"/>
    </radialGradient>
  </defs>
  <g transform="translate(-8 -13) scale(.98)">
      <g>
    
    <ellipse cx="48" cy="87" rx="34" ry="5" fill="#000" opacity=".25"/>
    <path d="M17 68 L14 88 M30 72 L29 89 M58 72 L61 89 M72 66 L78 87" stroke="#172554" stroke-width="5" stroke-linecap="round"/>
    <path d="M12 61 Q13 49 29 47 L67 48 Q79 51 77 63 Q75 75 59 76 L26 75 Q12 73 12 61 Z" fill="#7b5138" stroke="#172554" stroke-width="2"/>
    <path d="M24 53 H63 Q73 55 76 61" fill="none" stroke="#f4c95d" stroke-width="2" opacity=".65"/>
    <path d="M65 46 Q78 42 83 52 L80 65 L70 67 Q64 60 65 52 Z" fill="#7b5138" stroke="#172554" stroke-width="1.6"/>
    
    <circle cx="76" cy="54" r="1.6" fill="#111827"/>
    <path d="M13 57 Q3 61 8 73 L14 73 Q16 64 20 61 Z" fill="#172554" stroke="#172554" stroke-width="1"/>
    <path d="M36 28 Q37 18 48 17 Q59 18 60 29 L59 52 Q48 58 37 52 Z" fill="url(#hero-cavalier-body)" stroke="#172554" stroke-width="1.8"/>
    <path d="M38 34 H58 L56 48 H40 Z" fill="#f4c95d" opacity=".25"/>
    <path d="M48 34.8 V49.2 M42.24 40.56 H53.76" stroke="#f4c95d" stroke-width="1.728" stroke-linecap="round"/>
    <path d="M39 9 Q48 2 57 9 L55 20 Q48 25 41 20 Z" fill="url(#hero-cavalier-steel)" stroke="#172554" stroke-width="1.5"/>
    <path d="M42 14 H47 M50 14 H55" stroke="#0f172a" stroke-width="1.7" stroke-linecap="round"/>
    <path d="M42 2 Q48 -11 55 2" fill="none" stroke="#f4c95d" stroke-width="4" stroke-linecap="round"/>
    <path d="M36 21 L49 31 L46 60 L36 71 L26 60 L23 31 Z" fill="url(#hero-cavalier-body)" stroke="#f4c95d" stroke-width="2"/><path d="M36 27 V62 M28 43 H44" stroke="#dbeafe" stroke-width="1.8"/>
    <path d="M80 73 L35 15" stroke="#d8c29a" stroke-width="4" stroke-linecap="round"/><path d="M32 12 L25 23 L39 20 Z" fill="url(#hero-cavalier-steel)" stroke="#475569" stroke-width="1"/><path d="M47 27 L62 30 L53 44 Z" fill="#8b1e2d" stroke="#f4c95d" stroke-width="1"/>
  </g>
    </g>
</svg>
