<svg xmlns="http://www.w3.org/2000/svg" width="80" height="80" viewBox="0 0 80 80" role="img" aria-labelledby="hero-rampart-title hero-rampart-desc">
  <title id="hero-rampart-title">Héros rempart</title>
  <desc id="hero-rampart-desc">Sprite de héros sur la carte, avec monture et équipement de faction : Héros rempart.</desc>
  <defs>
    <linearGradient id="hero-rampart-body" x1="0" y1="0" x2="1" y2="1">
      <stop offset="0%" stop-color="#bbf7d0"/>
      <stop offset="48%" stop-color="#2f6f3b"/>
      <stop offset="100%" stop-color="#12391f"/>
    </linearGradient>
    <linearGradient id="hero-rampart-alt" x1="0" y1="0" x2="1" y2="1">
      <stop offset="0%" stop-color="#d6e68b"/>
      <stop offset="100%" stop-color="#7a4f25"/>
    </linearGradient>
    <linearGradient id="hero-rampart-steel" x1="0" y1="0" x2="0" y2="1">
      <stop offset="0%" stop-color="#f8fafc"/>
      <stop offset="55%" stop-color="#aeb8c4"/>
      <stop offset="100%" stop-color="#475569"/>
    </linearGradient>
    <radialGradient id="hero-rampart-glow" cx="50%" cy="48%" r="50%">
      <stop offset="0%" stop-color="#d6e68b" stop-opacity=".65"/>
      <stop offset="100%" stop-color="#d6e68b" stop-opacity="0"/>
    </radialGradient>
  </defs>
  <g transform="translate(-8 -13) scale(.98)">
      <g>
    
    <ellipse cx="48" cy="87" rx="34" ry="5" fill="#000" opacity=".25"/>
    <path d="M17 68 L14 88 M30 72 L29 89 M58 72 L61 89 M72 66 L78 87" stroke="#12391f" stroke-width="5" stroke-linecap="round"/>
    <path d="M12 61 Q13 49 29 47 L67 48 Q79 51 77 63 Q75 75 59 76 L26 75 Q12 73 12 61 Z" fill="#7b5138" stroke="#12391f" stroke-width="2"/>
    <path d="M24 53 H63 Q73 55 76 61" fill="none" stroke="#d6e68b" stroke-width="2" opacity=".65"/>
    <path d="M65 46 Q78 42 83 52 L80 65 L70 67 Q64 60 65 52 Z" fill="#7b5138" stroke="#12391f" stroke-width="1.6"/>
    
    <circle cx="76" cy="54" r="1.6" fill="#111827"/>
    <path d="M13 57 Q3 61 8 73 L14 73 Q16 64 20 61 Z" fill="#12391f" stroke="#12391f" stroke-width="1"/>
    <path d="M36 28 Q37 18 48 17 Q59 18 60 29 L59 52 Q48 58 37 52 Z" fill="url(#hero-rampart-body)" stroke="#12391f" stroke-width="1.8"/>
    <path d="M38 34 H58 L56 48 H40 Z" fill="#d6e68b" opacity=".25"/>
    <path d="M46.56 48.48 C37.2 40.56 45.12 31.92 55.2 35.52 C55.2 42.72 52.32 47.04 46.56 48.48 Z" fill="#d6e68b" stroke="#7a4f25" stroke-width="0.576"/>
    <path d="M39 9 Q48 2 57 9 L55 20 Q48 25 41 20 Z" fill="url(#hero-rampart-steel)" stroke="#12391f" stroke-width="1.5"/>
    <path d="M42 14 H47 M50 14 H55" stroke="#0f172a" stroke-width="1.7" stroke-linecap="round"/>
    <path d="M38 7 C32 -7 47 -7 53 2 C47 5 43 6 38 7 Z" fill="#d6e68b" stroke="#12391f" stroke-width="1"/>
    
    <path d="M60 16 C83 28 83 60 60 72" fill="none" stroke="#8b5a28" stroke-width="4" stroke-linecap="round"/><path d="M60 16 Q73 44 60 72 M46 47 H82" stroke="#f8ead1" stroke-width="1.5"/><path d="M82 47 L76 43 M82 47 L76 51" stroke="#d6e68b" stroke-width="1.5"/>
  </g>
    </g>
</svg>
