<svg xmlns="http://www.w3.org/2000/svg" width="64" height="64" viewBox="0 0 64 64" role="img" aria-labelledby="wall-vegetal-title wall-vegetal-desc">
  <title id="wall-vegetal-title">Mur végétal</title>
  <desc id="wall-vegetal-desc">Sprite de décor de carte : Mur végétal.</desc>
  
  <ellipse cx="32" cy="58" rx="22" ry="5" fill="#000" opacity=".24"/>
  <path d="M10 39 L32 22 L54 39 L32 55 Z" fill="#183016" opacity=".34"/>
  <path d="M12 28 L32 13 L52 28 L32 42 Z" fill="#5e913f" stroke="#173015" stroke-width="2"/>
  <path d="M12 28 L32 42 L32 56 L12 42 Z" fill="#335f2b" stroke="#173015" stroke-width="2"/>
  <path d="M52 28 L32 42 L32 56 L52 42 Z" fill="#244c24" stroke="#173015" stroke-width="2"/>
  <ellipse cx="21" cy="25" rx="10" ry="7" fill="#79b85a"/>
  <ellipse cx="34" cy="19" rx="12" ry="8" fill="#6aa34d"/>
  <ellipse cx="45" cy="26" rx="10" ry="7" fill="#83c25f"/>
  <ellipse cx="32" cy="31" rx="17" ry="9" fill="#4f823e"/>
  <path d="M17 35 C25 28 39 28 48 35 M22 24 C30 18 39 19 45 24" fill="none" stroke="#c4e79b" stroke-width="1.4" opacity=".48"/>
  <circle cx="24" cy="23" r="2" fill="#f5d76e"/><circle cx="43" cy="28" r="1.8" fill="#f7a8c8"/>
</svg>
